<?xml version="1.0" encoding="UTF-8"?>
<svg version="1.1" xmlns="http://www.w3.org/2000/svg" width="760" height="760">
<path d="M0 0 C0.33 0 0.66 0 1 0 C1.30485422 22.84520351 1.53349482 45.69006757 1.67355824 68.53689861 C1.74034664 79.14728328 1.83125525 89.75639789 1.98071289 100.3659668 C2.11105056 109.6227458 2.19433446 118.87860436 2.22315043 128.13627559 C2.23997354 133.03027591 2.27896527 137.92164522 2.37449074 142.81479454 C3.09774217 181.3331007 3.09774217 181.3331007 -10.4914465 197.20541286 C-12.55585745 199.6612524 -14.16920745 202.26355163 -15.83203125 205.00390625 C-16.82288345 206.5251586 -17.81623463 208.04478722 -18.8125 209.5625 C-19.35398682 210.39144775 -19.89547363 211.22039551 -20.45336914 212.07446289 C-24.59688074 218.40901038 -28.78581181 224.71228204 -33 231 C-35.25151985 234.37398701 -37.5006965 237.74953515 -39.75 241.125 C-46.6232887 251.43948731 -46.6232887 251.43948731 -49.97265625 256.44140625 C-67.2471079 282.25527025 -84.18910814 308.25962778 -100 335 C-100.54382324 335.9187793 -101.08764648 336.83755859 -101.64794922 337.78417969 C-140.61561982 403.75369072 -173.40529458 472.29959855 -185.9296875 548.5390625 C-186.10041779 549.57700958 -186.27114807 550.61495667 -186.447052 551.68435669 C-187.29764366 556.88098912 -188.13052963 562.07957607 -188.93408203 567.28369141 C-196.03471053 612.42462685 -212.19332234 654.49243049 -244 688 C-245.15214969 689.34879668 -246.29844083 690.7026303 -247.4375 692.0625 C-258.09374924 704.25881323 -271.36217211 713.83439833 -284.9375 722.5 C-285.74251953 723.01675293 -286.54753906 723.53350586 -287.37695312 724.06591797 C-288.14845703 724.54947754 -288.91996094 725.03303711 -289.71484375 725.53125 C-290.39667725 725.95986328 -291.07851074 726.38847656 -291.78100586 726.83007812 C-294.43397731 728.22880617 -297.1509127 729.07708041 -300 730 C-300.32085412 687.62964999 -300.56734202 645.25944083 -300.71491461 602.88811538 C-300.73242328 597.87918431 -300.75054391 592.87025563 -300.76904297 587.86132812 C-300.77271531 586.86419376 -300.77638766 585.8670594 -300.78017129 584.83970885 C-300.84099323 568.7207456 -300.95132235 552.60248555 -301.08013915 536.48393865 C-301.21133258 519.92921396 -301.28887978 503.37485605 -301.31723893 486.81963289 C-301.33639365 476.61406308 -301.39675368 466.41048114 -301.51083054 456.20552371 C-301.5851727 449.19551284 -301.60712688 442.18652064 -301.58901928 435.17614473 C-301.58010163 431.13822299 -301.5931837 427.1037587 -301.66887665 423.06646156 C-302.18338963 394.22222765 -302.18338963 394.22222765 -291.2515744 382.17825282 C-290.05686837 380.95847202 -288.84448011 379.7556433 -287.61140275 378.57466578 C-285.49931888 376.51073347 -283.74592743 374.23804268 -281.9921875 371.8671875 C-281.46753906 371.19558594 -280.94289063 370.52398437 -280.40234375 369.83203125 C-275.0384068 362.95905833 -269.7530752 356.03533396 -264.54296875 349.04516602 C-259.00659309 341.63549083 -253.30183331 334.35807017 -247.61035156 327.06738281 C-243.71397669 322.06518414 -239.86037495 317.02999186 -236 312 C-234.33390746 309.83289152 -232.66693223 307.66646261 -231 305.5 C-230.16275248 304.41146444 -229.32551287 303.32292279 -228.48828125 302.234375 C-226.86133583 300.11928247 -225.2336002 298.00480548 -223.60546875 295.890625 C-218.8924 289.76896543 -214.19125402 283.63839588 -209.5 277.5 C-204.01437558 270.32218908 -198.51203249 263.15754953 -193 256 C-191.33304708 253.83355349 -189.66651031 251.66678699 -188 249.5 C-185.53595289 246.2962603 -183.07149659 243.09284059 -180.60546875 239.890625 C-175.89239977 233.76896513 -171.1913312 227.63833714 -166.5 221.5 C-158.10570601 210.51882346 -149.6723099 199.56985716 -141.1809082 188.66357422 C-136.09485966 182.12862953 -131.04082915 175.56988066 -126 169 C-120.35828496 161.64696473 -114.69355547 154.31297078 -109 147 C-100.87534738 136.56070285 -92.79706138 126.09312029 -84.87792969 115.49682617 C-81.33482609 110.76208329 -77.75766016 106.0545144 -74.16577148 101.35668945 C-63.18160513 86.9901515 -52.45925413 72.44545121 -41.89379883 57.76879883 C-37.96587293 52.31846714 -33.99263614 46.90306627 -30 41.5 C-25.38459818 35.25205657 -20.7968569 28.98552944 -16.25 22.6875 C-15.71858398 21.95160645 -15.18716797 21.21571289 -14.63964844 20.45751953 C-12.07754421 16.90309569 -9.52849429 13.34013861 -7 9.76171875 C-6.53432617 9.10405518 -6.06865234 8.4463916 -5.58886719 7.76879883 C-4.71667923 6.53510773 -3.84738706 5.29936267 -2.98144531 4.0612793 C-2.01207009 2.68991295 -1.00970098 1.34195301 0 0 Z " fill="#212121" transform="translate(449,0)"/>
<path d="M0 0 C1.12761647 0.96263558 2.25468646 1.92591133 3.38152313 2.88945961 C4.00921836 3.42581555 4.6369136 3.96217149 5.28362989 4.51478064 C7.03168863 6.02742099 8.70978551 7.58311085 10.34570312 9.21630859 C10.90318237 9.77063568 11.46066162 10.32496277 12.03503418 10.89608765 C12.6112854 11.4743631 13.18753662 12.05263855 13.78125 12.6484375 C14.39842896 13.26465973 15.01560791 13.88088196 15.65148926 14.51577759 C16.94678485 15.81039748 18.24083779 17.10626177 19.53369141 18.40332031 C21.4914052 20.36638172 23.45438971 22.32405738 25.41796875 24.28125 C26.68521646 25.54915878 27.9521538 26.81737787 29.21875 28.0859375 C30.08312683 28.94727798 30.08312683 28.94727798 30.96496582 29.82601929 C33.84985566 32.72722119 36.61653712 35.6803968 39.28125 38.78564453 C43.69826499 43.8869804 48.49062428 48.59604469 53.28125 53.34375 C54.26368378 54.32176419 55.24581488 55.30008251 56.22766113 56.27868652 C59.31560571 59.35531395 62.40748814 62.42796436 65.5 65.5 C69.08930463 69.06553903 72.67688508 72.63277928 76.26023865 76.20429993 C77.67991157 77.61758629 79.10266999 79.02777111 80.5255127 80.43786621 C84.28650463 84.18470545 87.99913515 87.92221288 91.45458984 91.95458984 C95.55090629 96.72640816 100.0141994 101.12665865 104.47668839 105.55185318 C106.04371323 107.10591628 107.60741884 108.66325526 109.17037964 110.22140503 C112.48575533 113.52545415 115.80507603 116.82552187 119.125 120.125 C122.98367908 123.95997027 126.84066454 127.79661351 130.69344711 131.63750839 C132.22514266 133.16277968 133.75984434 134.68497983 135.29470825 136.20706177 C139.75568746 140.64481622 144.06795478 145.08326065 148 150 C149.64740076 151.6857124 151.31066078 153.3563186 153 155 C155 157 155 157 155.24839699 159.42207491 C155.24763755 160.45111701 155.24687811 161.4801591 155.24609566 162.54038429 C155.25007775 163.72523749 155.25405985 164.91009069 155.25816262 166.13084853 C155.25233693 167.44405432 155.24651125 168.75726011 155.24050903 170.11026001 C155.24138046 171.51029424 155.24313027 172.91032815 155.24568737 174.31036031 C155.25017733 178.17101653 155.24213471 182.03156259 155.23213124 185.89220476 C155.22352267 190.05035439 155.22641506 194.20849742 155.22793579 198.36665344 C155.22898629 205.57541001 155.2226925 212.78413047 155.21146011 219.99287796 C155.19523037 230.41560951 155.1899997 240.83832354 155.18748413 251.26106636 C155.18310305 268.16982238 155.16978277 285.07855913 155.15087891 301.98730469 C155.13253078 318.41601464 155.11836906 334.84471937 155.10986328 351.2734375 C155.10933783 352.28550355 155.10881239 353.29756961 155.10827102 354.34030433 C155.10566101 359.41736318 155.10313358 364.49442207 155.10064721 369.57148099 C155.07990186 411.71433406 155.04466512 453.85716593 155 496 C150.60254746 494.36560189 147.44177284 492.13066431 143.9375 489.0625 C143.37313232 488.57523438 142.80876465 488.08796875 142.22729492 487.5859375 C140.47660236 486.06644085 138.73691697 484.53521366 137 483 C136.46858398 482.53319824 135.93716797 482.06639648 135.38964844 481.58544922 C76.90112438 429.98982162 44.05460053 349.16598103 16.0625 278.1875 C15.62275848 277.07258682 15.62275848 277.07258682 15.1741333 275.93515015 C12.90489928 270.16626333 12.90489928 270.16626333 11.80720991 267.26953173 C10.20169486 263.03322543 8.51612335 258.85129758 6.71583652 254.69379425 C0.5252618 239.98517775 -1.26971983 227.460529 -1.02172852 211.61132812 C-1.0191812 209.28269551 -1.02063165 206.95405571 -1.02571106 204.62542725 C-1.02826229 198.38672179 -0.97586248 192.14961743 -0.91254544 185.91127968 C-0.8557569 179.36114545 -0.85095579 172.81096255 -0.84031677 166.26062012 C-0.81714256 155.29326087 -0.7596761 144.32645356 -0.67895508 133.359375 C-0.59600004 122.0768517 -0.53246437 110.79448655 -0.49438477 99.51171875 C-0.49202025 98.81309316 -0.48965574 98.11446756 -0.48721958 97.3946715 C-0.47547194 93.88892689 -0.46409912 90.38318118 -0.45291245 86.87743473 C-0.36002144 57.91791557 -0.20118576 28.95896558 0 0 Z " fill="#212121" transform="translate(467,233)"/>
<path d="M0 0 C1.83758057 2.75637085 2.60651076 4.5966383 3.5234375 7.71484375 C3.81549072 8.69130859 4.10754395 9.66777344 4.40844727 10.67382812 C4.72740967 11.75083984 5.04637207 12.82785156 5.375 13.9375 C16.50308043 50.70180199 29.5714541 86.82873837 42.8125 122.875 C43.24763916 124.06520752 43.68277832 125.25541504 44.13110352 126.48168945 C46.31324418 132.44461616 48.52749765 138.39241696 50.79296875 144.32421875 C79.32574172 219.957103 38.75546306 311.17936802 8 381 C5.39601419 378.39601419 4.72410463 375.89410447 3.4375 372.4375 C-5.65876166 349.01256342 -20.72898103 329.69838133 -36 310 C-36.81380127 308.95005859 -36.81380127 308.95005859 -37.64404297 307.87890625 C-42.95107744 301.04796774 -48.34313446 294.30146458 -53.9296875 287.6953125 C-59.34167381 280.649519 -62.45741711 273.70101681 -65.1875 265.25 C-65.52974609 264.24195313 -65.87199219 263.23390625 -66.22460938 262.1953125 C-80.8051989 217.91561927 -64.08335577 174.22466923 -45.83374023 133.85375977 C-26.47315299 90.85592744 -9.15100969 46.38081602 0 0 Z " fill="#212121" transform="translate(398,307)"/>
</svg>
