<?xml version="1.0" encoding="UTF-8"?>
<svg version="1.1" xmlns="http://www.w3.org/2000/svg" width="760" height="760">
<path d="M0 0 C0.99 0 1.98 0 3 0 C3.30484461 22.97558979 3.53349023 45.95084211 3.67355824 68.92805004 C3.74034861 79.59896485 3.83126122 90.26861694 3.98071289 100.9387207 C4.11104427 110.24823736 4.19433303 119.5568389 4.22315043 128.86724263 C4.23997454 133.78918191 4.27897328 138.70850536 4.37449074 143.62959862 C5.09773787 182.37063352 5.09773787 182.37063352 -8.4914465 198.20893764 C-10.55805377 200.66256125 -12.16976732 203.26358382 -13.83203125 206.00390625 C-14.82288345 207.5251586 -15.81623463 209.04478722 -16.8125 210.5625 C-17.35398682 211.39144775 -17.89547363 212.22039551 -18.45336914 213.07446289 C-22.59688074 219.40901038 -26.78581181 225.71228204 -31 232 C-33.25151985 235.37398701 -35.5006965 238.74953515 -37.75 242.125 C-44.6232887 252.43948731 -44.6232887 252.43948731 -47.97265625 257.44140625 C-65.2471079 283.25527025 -82.18910814 309.25962778 -98 336 C-98.54382324 336.9187793 -99.08764648 337.83755859 -99.64794922 338.78417969 C-138.61561982 404.75369072 -171.40529458 473.29959855 -183.9296875 549.5390625 C-184.10041779 550.57700958 -184.27114807 551.61495667 -184.447052 552.68435669 C-185.29764366 557.88098912 -186.13052963 563.07957607 -186.93408203 568.28369141 C-194.03471053 613.42462685 -210.19332234 655.49243049 -242 689 C-243.15214969 690.34879668 -244.29844083 691.7026303 -245.4375 693.0625 C-258.40818323 707.90773418 -277.65899551 723.22264175 -296 731 C-297.32 731 -298.64 731 -300 731 C-300.32084938 688.37486014 -300.56733964 645.74986027 -300.71491461 603.12375084 C-300.73242329 598.08477724 -300.75054392 593.045806 -300.76904297 588.00683594 C-300.77271531 587.00372035 -300.77638766 586.00060476 -300.78017129 584.96709172 C-300.84099434 568.75113283 -300.95132411 552.53587288 -301.08013915 536.32032783 C-301.21132943 519.66616179 -301.28887912 503.01236032 -301.31723893 486.3576988 C-301.33639428 476.0907153 -301.39675794 465.82570765 -301.51083054 455.55933283 C-301.58516877 448.50727367 -301.60712773 441.45622713 -301.58901928 434.40380515 C-301.58010106 430.3415884 -301.59319088 426.28280839 -301.66887665 422.22121239 C-302.18338975 393.20081788 -302.18338975 393.20081788 -291.2515744 381.16886771 C-290.05697867 379.95108828 -288.84459698 378.75038373 -287.61140275 377.57170749 C-285.49760093 375.50997702 -283.74534197 373.23801028 -281.9921875 370.8671875 C-281.46753906 370.19558594 -280.94289063 369.52398437 -280.40234375 368.83203125 C-275.0384068 361.95905833 -269.7530752 355.03533396 -264.54296875 348.04516602 C-259.00659309 340.63549083 -253.30183331 333.35807017 -247.61035156 326.06738281 C-243.71397669 321.06518414 -239.86037495 316.02999186 -236 311 C-234.33390746 308.83289152 -232.66693223 306.66646261 -231 304.5 C-230.16275248 303.41146444 -229.32551287 302.32292279 -228.48828125 301.234375 C-226.86133583 299.11928247 -225.2336002 297.00480548 -223.60546875 294.890625 C-218.8924 288.76896543 -214.19125402 282.63839588 -209.5 276.5 C-204.01437558 269.32218908 -198.51203249 262.15754953 -193 255 C-191.33304708 252.83355349 -189.66651031 250.66678699 -188 248.5 C-185.53595289 245.2962603 -183.07149659 242.09284059 -180.60546875 238.890625 C-175.89239977 232.76896513 -171.1913312 226.63833714 -166.5 220.5 C-158.10570601 209.51882346 -149.6723099 198.56985716 -141.1809082 187.66357422 C-136.09485966 181.12862953 -131.04082915 174.56988066 -126 168 C-120.35828496 160.64696473 -114.69355547 153.31297078 -109 146 C-100.87534738 135.56070285 -92.79706138 125.09312029 -84.87792969 114.49682617 C-81.33482609 109.76208329 -77.75766016 105.0545144 -74.16577148 100.35668945 C-63.18160513 85.9901515 -52.45925413 71.44545121 -41.89379883 56.76879883 C-37.3886704 50.51754946 -32.82031598 44.31438743 -28.23925781 38.11865234 C-24.76110962 33.40853903 -21.31571709 28.67689256 -17.89990234 23.92138672 C-15.27822745 20.27245596 -12.6436217 16.63305736 -10 13 C-9.50918945 12.32517578 -9.01837891 11.65035156 -8.51269531 10.95507812 C-7.1448682 9.08623919 -5.76313913 7.22878074 -4.375 5.375 C-3.21097656 3.80878906 -3.21097656 3.80878906 -2.0234375 2.2109375 C-1.02183594 1.11652344 -1.02183594 1.11652344 0 0 Z " fill="#F0ECE5" transform="translate(448,0)"/>
<path d="M0 0 C3.40117299 0.74626263 4.99142955 1.61927985 7.46411133 4.10766602 C8.12192093 4.76247452 8.77973053 5.41728302 9.45747375 6.0919342 C10.15857773 6.80538498 10.8596817 7.51883575 11.58203125 8.25390625 C12.68063728 9.35532204 12.68063728 9.35532204 13.80143738 10.47898865 C15.35234145 12.03661797 16.89964202 13.59784226 18.44360352 15.16235352 C20.78618449 17.53583734 23.13902553 19.89872509 25.49414062 22.25976562 C27.00322375 23.77803025 28.51170626 25.29689213 30.01953125 26.81640625 C31.06207817 27.86532799 31.06207817 27.86532799 32.12568665 28.93544006 C35.30862981 32.16421242 38.4030634 35.42407406 41.35620117 38.86499023 C45.74518313 43.9419574 50.51680384 48.6219897 55.28125 53.34375 C56.26368378 54.32176419 57.24581488 55.30008251 58.22766113 56.27868652 C61.31560571 59.35531395 64.40748814 62.42796436 67.5 65.5 C71.08930463 69.06553903 74.67688508 72.63277928 78.26023865 76.20429993 C79.67991157 77.61758629 81.10266999 79.02777111 82.5255127 80.43786621 C86.28650463 84.18470545 89.99913515 87.92221288 93.45458984 91.95458984 C97.55090629 96.72640816 102.0141994 101.12665865 106.47668839 105.55185318 C108.04371323 107.10591628 109.60741884 108.66325526 111.17037964 110.22140503 C114.48575533 113.52545415 117.80507603 116.82552187 121.125 120.125 C124.98367908 123.95997027 128.84066454 127.79661351 132.69344711 131.63750839 C134.22514266 133.16277968 135.75984434 134.68497983 137.29470825 136.20706177 C141.75568746 140.64481622 146.06795478 145.08326065 150 150 C151.64740076 151.6857124 153.31066078 153.3563186 155 155 C157 157 157 157 157.24839699 159.43489897 C157.24763755 160.47001659 157.24687811 161.50513421 157.24609566 162.57161903 C157.25007775 163.76343902 157.25405985 164.95525901 157.25816262 166.18319476 C157.25245582 167.51752652 157.24656462 168.85185751 157.24050903 170.18618774 C157.24138045 171.59447157 157.24313026 173.00275508 157.24568737 174.41103685 C157.25017739 178.29449597 157.24213463 182.17784559 157.23213124 186.06129074 C157.22352276 190.24398047 157.22641505 194.42666365 157.22793579 198.60935974 C157.2289863 205.86067807 157.22269245 213.11196051 157.21146011 220.36326981 C157.19523044 230.84753953 157.18999971 241.33179183 157.18748413 251.81607275 C157.18310304 268.8246573 157.16978273 285.83322272 157.15087891 302.84179688 C157.13253081 319.36751204 157.11836907 335.89322202 157.10986328 352.41894531 C157.10933783 353.43698536 157.10881239 354.4550254 157.10827102 355.50391515 C157.10566101 360.61094214 157.10313358 365.71796918 157.10064721 370.82499623 C157.07990182 413.21667742 157.04466505 455.60833772 157 498 C132.61429337 493.93059359 109.32456335 456.63277547 95.90942383 438.01879883 C61.78784095 390.01656612 37.5873677 334.76727019 16.0625 280.1875 C15.62275848 279.07258682 15.62275848 279.07258682 15.1741333 277.93515015 C12.90328657 272.16216347 12.90328657 272.16216347 11.80720991 269.26912832 C10.2025882 265.03456829 8.51731877 260.85511428 6.71583652 256.70024872 C0.49372401 241.93213163 -1.26855721 229.34189514 -1.02172852 213.42773438 C-1.0191813 211.07939757 -1.02063147 208.73105364 -1.02571106 206.38272095 C-1.02826265 200.09030399 -0.97585661 193.79947395 -0.91254544 187.50742149 C-0.86153847 181.57313762 -0.852895 175.63890413 -0.84367859 169.70443064 C-0.82411061 157.97095435 -0.76457491 146.23804974 -0.67895508 134.50488281 C-0.59600357 123.12535406 -0.53246613 111.74598207 -0.49438477 100.36621094 C-0.490838 99.30931156 -0.490838 99.30931156 -0.48721958 98.23106068 C-0.47547197 94.69534792 -0.46409914 91.15963407 -0.45291245 87.62391949 C-0.3600173 58.4155787 -0.20117796 29.20779554 0 0 Z " fill="#F0ECE5" transform="translate(466,232)"/>
<path d="M0 0 C0.99 0 1.98 0 3 0 C3.20979492 0.6899707 3.41958984 1.37994141 3.63574219 2.09082031 C16.05568693 42.81173239 30.13497725 82.91819981 44.8125 122.875 C45.24763916 124.06520752 45.68277832 125.25541504 46.13110352 126.48168945 C48.31324418 132.44461616 50.52749765 138.39241696 52.79296875 144.32421875 C81.59296708 220.65521451 41.06220553 312.48300545 10 383 C9.01 383 8.02 383 7 383 C6.5153125 381.80246094 6.030625 380.60492187 5.53125 379.37109375 C-4.83613701 354.05270575 -19.27843251 333.5694718 -36 312 C-36.81380127 310.95005859 -36.81380127 310.95005859 -37.64404297 309.87890625 C-42.95107744 303.04796774 -48.34313446 296.30146458 -53.9296875 289.6953125 C-59.34167381 282.649519 -62.45741711 275.70101681 -65.1875 267.25 C-65.52974609 266.24195313 -65.87199219 265.23390625 -66.22460938 264.1953125 C-81.01700328 219.27239198 -64.35004635 174.81462911 -45.83374023 133.85375977 C-26.47315299 90.85592744 -9.15100969 46.38081602 0 0 Z " fill="#EEEBE4" transform="translate(397,306)"/>
<path d="M0 0 C0.99 0 1.98 0 3 0 C5.42857143 6.28571429 5.42857143 6.28571429 4 10 C3.67 8.02 3.34 6.04 3 4 C2.01 4 1.02 4 0 4 C0 2.68 0 1.36 0 0 Z " fill="#71767C" transform="translate(397,306)"/>
</svg>
